<mxfile host="app.diagrams.net" modified="2024-03-03T13:30:19.982Z" agent="Mozilla/5.0 (Windows NT 10.0; Win64; x64) AppleWebKit/537.36 (KHTML, like Gecko) Chrome/121.0.0.0 Safari/537.36" etag="FUuMUmAUtF-1TJ5ucFkB" version="23.1.8" type="github">
  <diagram name="第 1 页" id="E6YmUUs-9iFQ6c9RZxlu">
    <mxGraphModel dx="1050" dy="574" grid="1" gridSize="10" guides="1" tooltips="1" connect="1" arrows="1" fold="1" page="1" pageScale="1" pageWidth="827" pageHeight="1169" math="0" shadow="0">
      <root>
        <mxCell id="0" />
        <mxCell id="1" parent="0" />
        <mxCell id="X-otlScgQ_i8FMPiyjli-1" value="APK搜索页面" style="shape=umlLifeline;perimeter=lifelinePerimeter;whiteSpace=wrap;html=1;container=1;dropTarget=0;collapsible=0;recursiveResize=0;outlineConnect=0;portConstraint=eastwest;newEdgeStyle={&quot;curved&quot;:0,&quot;rounded&quot;:0};" vertex="1" parent="1">
          <mxGeometry x="120" y="180" width="100" height="230" as="geometry" />
        </mxCell>
        <mxCell id="X-otlScgQ_i8FMPiyjli-27" value="" style="html=1;points=[[0,0,0,0,5],[0,1,0,0,-5],[1,0,0,0,5],[1,1,0,0,-5]];perimeter=orthogonalPerimeter;outlineConnect=0;targetShapes=umlLifeline;portConstraint=eastwest;newEdgeStyle={&quot;curved&quot;:0,&quot;rounded&quot;:0};" vertex="1" parent="X-otlScgQ_i8FMPiyjli-1">
          <mxGeometry x="45" y="70" width="10" height="30" as="geometry" />
        </mxCell>
        <mxCell id="X-otlScgQ_i8FMPiyjli-3" value="" style="shape=umlLifeline;perimeter=lifelinePerimeter;whiteSpace=wrap;html=1;container=1;dropTarget=0;collapsible=0;recursiveResize=0;outlineConnect=0;portConstraint=eastwest;newEdgeStyle={&quot;curved&quot;:0,&quot;rounded&quot;:0};participant=umlActor;" vertex="1" parent="1">
          <mxGeometry x="20" y="180" width="20" height="230" as="geometry" />
        </mxCell>
        <mxCell id="X-otlScgQ_i8FMPiyjli-26" value="" style="html=1;points=[[0,0,0,0,5],[0,1,0,0,-5],[1,0,0,0,5],[1,1,0,0,-5]];perimeter=orthogonalPerimeter;outlineConnect=0;targetShapes=umlLifeline;portConstraint=eastwest;newEdgeStyle={&quot;curved&quot;:0,&quot;rounded&quot;:0};" vertex="1" parent="X-otlScgQ_i8FMPiyjli-3">
          <mxGeometry x="5" y="70" width="10" height="150" as="geometry" />
        </mxCell>
        <mxCell id="X-otlScgQ_i8FMPiyjli-5" value="APK静态分析模块" style="shape=umlLifeline;perimeter=lifelinePerimeter;whiteSpace=wrap;html=1;container=1;dropTarget=0;collapsible=0;recursiveResize=0;outlineConnect=0;portConstraint=eastwest;newEdgeStyle={&quot;curved&quot;:0,&quot;rounded&quot;:0};" vertex="1" parent="1">
          <mxGeometry x="390" y="180" width="100" height="230" as="geometry" />
        </mxCell>
        <mxCell id="X-otlScgQ_i8FMPiyjli-30" value="" style="html=1;points=[[0,0,0,0,5],[0,1,0,0,-5],[1,0,0,0,5],[1,1,0,0,-5]];perimeter=orthogonalPerimeter;outlineConnect=0;targetShapes=umlLifeline;portConstraint=eastwest;newEdgeStyle={&quot;curved&quot;:0,&quot;rounded&quot;:0};" vertex="1" parent="X-otlScgQ_i8FMPiyjli-5">
          <mxGeometry x="45" y="90" width="10" height="110" as="geometry" />
        </mxCell>
        <mxCell id="X-otlScgQ_i8FMPiyjli-7" value="数据库" style="shape=umlLifeline;perimeter=lifelinePerimeter;whiteSpace=wrap;html=1;container=1;dropTarget=0;collapsible=0;recursiveResize=0;outlineConnect=0;portConstraint=eastwest;newEdgeStyle={&quot;curved&quot;:0,&quot;rounded&quot;:0};" vertex="1" parent="1">
          <mxGeometry x="550" y="180" width="100" height="230" as="geometry" />
        </mxCell>
        <mxCell id="X-otlScgQ_i8FMPiyjli-33" value="" style="html=1;points=[[0,0,0,0,5],[0,1,0,0,-5],[1,0,0,0,5],[1,1,0,0,-5]];perimeter=orthogonalPerimeter;outlineConnect=0;targetShapes=umlLifeline;portConstraint=eastwest;newEdgeStyle={&quot;curved&quot;:0,&quot;rounded&quot;:0};" vertex="1" parent="X-otlScgQ_i8FMPiyjli-7">
          <mxGeometry x="45" y="110" width="10" height="50" as="geometry" />
        </mxCell>
        <mxCell id="X-otlScgQ_i8FMPiyjli-11" value="普通客户" style="text;html=1;align=center;verticalAlign=middle;whiteSpace=wrap;rounded=0;" vertex="1" parent="1">
          <mxGeometry x="30" y="190" width="60" height="30" as="geometry" />
        </mxCell>
        <mxCell id="X-otlScgQ_i8FMPiyjli-28" style="edgeStyle=orthogonalEdgeStyle;rounded=0;orthogonalLoop=1;jettySize=auto;html=1;curved=0;exitX=1;exitY=0;exitDx=0;exitDy=5;exitPerimeter=0;entryX=0;entryY=0;entryDx=0;entryDy=5;entryPerimeter=0;" edge="1" parent="1" source="X-otlScgQ_i8FMPiyjli-26" target="X-otlScgQ_i8FMPiyjli-27">
          <mxGeometry relative="1" as="geometry" />
        </mxCell>
        <mxCell id="X-otlScgQ_i8FMPiyjli-29" value="1. 输入APK的哈希值" style="text;html=1;align=center;verticalAlign=middle;whiteSpace=wrap;rounded=0;" vertex="1" parent="1">
          <mxGeometry x="35" y="230" width="120" height="30" as="geometry" />
        </mxCell>
        <mxCell id="X-otlScgQ_i8FMPiyjli-31" style="edgeStyle=orthogonalEdgeStyle;rounded=0;orthogonalLoop=1;jettySize=auto;html=1;curved=0;exitX=1;exitY=1;exitDx=0;exitDy=-5;exitPerimeter=0;entryX=0;entryY=0;entryDx=0;entryDy=5;entryPerimeter=0;" edge="1" parent="1" source="X-otlScgQ_i8FMPiyjli-27" target="X-otlScgQ_i8FMPiyjli-30">
          <mxGeometry relative="1" as="geometry" />
        </mxCell>
        <mxCell id="X-otlScgQ_i8FMPiyjli-32" value="2. 提交APK的哈希值" style="text;html=1;align=center;verticalAlign=middle;whiteSpace=wrap;rounded=0;" vertex="1" parent="1">
          <mxGeometry x="250" y="250" width="120" height="30" as="geometry" />
        </mxCell>
        <mxCell id="X-otlScgQ_i8FMPiyjli-34" value="" style="endArrow=classic;html=1;rounded=0;" edge="1" parent="1" source="X-otlScgQ_i8FMPiyjli-30">
          <mxGeometry width="50" height="50" relative="1" as="geometry">
            <mxPoint x="535" y="300" as="sourcePoint" />
            <mxPoint x="595" y="300" as="targetPoint" />
          </mxGeometry>
        </mxCell>
        <mxCell id="X-otlScgQ_i8FMPiyjli-35" value="3. 查询对应的APK信息" style="text;html=1;align=center;verticalAlign=middle;whiteSpace=wrap;rounded=0;" vertex="1" parent="1">
          <mxGeometry x="460" y="274" width="130" height="30" as="geometry" />
        </mxCell>
        <mxCell id="X-otlScgQ_i8FMPiyjli-36" value="" style="endArrow=classic;html=1;rounded=0;dashed=1;" edge="1" parent="1" target="X-otlScgQ_i8FMPiyjli-30">
          <mxGeometry width="50" height="50" relative="1" as="geometry">
            <mxPoint x="595" y="334.65999999999997" as="sourcePoint" />
            <mxPoint x="524.810344827586" y="334.65999999999997" as="targetPoint" />
          </mxGeometry>
        </mxCell>
        <mxCell id="X-otlScgQ_i8FMPiyjli-37" value="return" style="text;html=1;align=center;verticalAlign=middle;whiteSpace=wrap;rounded=0;" vertex="1" parent="1">
          <mxGeometry x="490" y="312" width="60" height="30" as="geometry" />
        </mxCell>
        <mxCell id="X-otlScgQ_i8FMPiyjli-38" value="" style="endArrow=classic;html=1;rounded=0;dashed=1;" edge="1" parent="1" source="X-otlScgQ_i8FMPiyjli-30">
          <mxGeometry width="50" height="50" relative="1" as="geometry">
            <mxPoint x="430" y="372.9999999999999" as="sourcePoint" />
            <mxPoint x="315.25" y="373" as="targetPoint" />
          </mxGeometry>
        </mxCell>
        <mxCell id="X-otlScgQ_i8FMPiyjli-39" value="4. 查询成功" style="text;html=1;align=center;verticalAlign=middle;whiteSpace=wrap;rounded=0;" vertex="1" parent="1">
          <mxGeometry x="310" y="312" width="120" height="30" as="geometry" />
        </mxCell>
        <mxCell id="X-otlScgQ_i8FMPiyjli-40" value="结果展示页面" style="shape=umlLifeline;perimeter=lifelinePerimeter;whiteSpace=wrap;html=1;container=1;dropTarget=0;collapsible=0;recursiveResize=0;outlineConnect=0;portConstraint=eastwest;newEdgeStyle={&quot;curved&quot;:0,&quot;rounded&quot;:0};" vertex="1" parent="1">
          <mxGeometry x="260" y="180" width="100" height="230" as="geometry" />
        </mxCell>
        <mxCell id="X-otlScgQ_i8FMPiyjli-44" value="" style="html=1;points=[[0,0,0,0,5],[0,1,0,0,-5],[1,0,0,0,5],[1,1,0,0,-5]];perimeter=orthogonalPerimeter;outlineConnect=0;targetShapes=umlLifeline;portConstraint=eastwest;newEdgeStyle={&quot;curved&quot;:0,&quot;rounded&quot;:0};" vertex="1" parent="X-otlScgQ_i8FMPiyjli-40">
          <mxGeometry x="45" y="190" width="10" height="32" as="geometry" />
        </mxCell>
        <mxCell id="X-otlScgQ_i8FMPiyjli-41" value="" style="endArrow=classic;html=1;rounded=0;dashed=1;entryX=0.542;entryY=0.639;entryDx=0;entryDy=0;entryPerimeter=0;exitX=0;exitY=1;exitDx=0;exitDy=-5;exitPerimeter=0;" edge="1" parent="1" source="X-otlScgQ_i8FMPiyjli-44">
          <mxGeometry width="50" height="50" relative="1" as="geometry">
            <mxPoint x="260" y="396" as="sourcePoint" />
            <mxPoint x="34.200000000000045" y="395.9999999999999" as="targetPoint" />
          </mxGeometry>
        </mxCell>
        <mxCell id="X-otlScgQ_i8FMPiyjli-42" value="5. 将结果进行展示" style="text;html=1;align=center;verticalAlign=middle;whiteSpace=wrap;rounded=0;" vertex="1" parent="1">
          <mxGeometry x="99.99999999999999" y="370" width="120" height="30" as="geometry" />
        </mxCell>
      </root>
    </mxGraphModel>
  </diagram>
</mxfile>
